<svg width="97" height="38" viewBox="0 0 97 38" fill="none" xmlns="http://www.w3.org/2000/svg">
<path d="M78.8819 20.0297C77.3673 20.0297 76.1309 18.7933 76.1309 17.2787C76.1309 15.7487 77.3673 14.5277 78.8819 14.5277C80.3965 14.5277 81.6329 15.7641 81.6329 17.2787C81.6483 18.7933 80.4119 20.0297 78.8819 20.0297ZM78.8819 11.9004C75.9145 11.9004 73.5035 14.3114 73.5035 17.2787C73.5035 20.2461 75.9145 22.6571 78.8819 22.6571C81.8492 22.6571 84.2602 20.2461 84.2602 17.2787C84.2602 14.2959 81.8492 11.9004 78.8819 11.9004Z" fill="black"/>
<path d="M54.185 20.0297C52.6704 20.0297 51.4341 18.7933 51.4341 17.2787C51.4341 15.7487 52.6704 14.5277 54.185 14.5277C55.6996 14.5277 56.936 15.7641 56.936 17.2787C56.936 18.7933 55.6996 20.0297 54.185 20.0297ZM54.185 11.9004C51.2177 11.9004 48.8067 14.3114 48.8067 17.2787C48.8067 20.2461 51.2177 22.6571 54.185 22.6571C57.1524 22.6571 59.5634 20.2461 59.5634 17.2787C59.5479 14.2959 57.1524 11.9004 54.185 11.9004Z" fill="black"/>
<path d="M73.1639 20.1845C72.8239 20.2772 72.2984 20.3854 72.113 20.3854C71.1857 20.3854 71.0002 20.0608 71.0002 19.1954V14.2188H73.1948V12.1479H71.0002V9.21143H68.5274L68.002 12.1479H66.2864H66.1474C64.741 12.1479 63.6746 13.0134 62.9945 14.3579L62.1445 12.1479H60.3672V22.4564H63.3964V17.9744C63.3964 15.718 64.7409 14.2652 66.3174 14.2188H67.971V19.3499C67.971 21.7609 69.2074 22.6573 71.2166 22.6573C72.2521 22.6573 73.0557 22.4409 73.5348 22.2864L73.1639 20.1845Z" fill="black"/>
<path d="M87.9385 15.3928V22.4558H84.9866V12.1318H86.7794L87.3821 13.7082" fill="black"/>
<path d="M87.3674 13.7241C88.2638 12.6886 89.4848 11.9004 90.9221 11.9004C93.3794 11.9004 94.384 13.8632 94.384 15.6714V22.4562H91.3548V15.7641C91.3548 14.8832 90.613 14.4041 89.8248 14.4041C88.9748 14.4041 88.4338 14.8987 87.9547 15.4087" fill="black"/>
<path d="M37.0449 8.40771H40.4296L45.0661 17.2325V8.40771H47.8634V22.4563H44.8033L39.8423 12.7351V22.4563H37.0449V8.40771Z" fill="black"/>
<path d="M94.3842 12.1475V12.3484H94.6624V13.322H94.8942V12.3484H95.1879V12.1475H94.3842Z" fill="black"/>
<path d="M96.0685 12.1475L95.8676 12.9202L95.6512 12.1475H95.3421V13.322H95.543V12.3947L95.7903 13.322H95.9448L96.1921 12.3947V13.322H96.3776V12.1475H96.0685Z" fill="black"/>
<path d="M16.1041 10.0769C13.1677 10.0769 10.4012 11.2205 8.31479 13.307C6.22836 15.3934 5.08469 18.1598 5.08469 21.0963C5.08469 24.0327 6.22836 26.7992 8.31479 28.8856C10.4012 30.972 13.1677 32.1157 16.1041 32.1157C19.0405 32.1157 21.807 30.972 23.8934 28.8856C25.9644 26.7992 27.1081 24.0327 27.1235 21.0963C27.1235 18.1598 25.9798 15.3934 23.8934 13.307C21.807 11.236 19.0405 10.0769 16.1041 10.0769ZM16.1041 37.2004C7.23294 37.2004 0 29.9675 0 21.0963C0 12.2097 7.23294 4.99219 16.1041 4.99219C24.9753 4.99219 32.2082 12.2097 32.2082 21.0963C32.2082 29.9675 24.9753 37.2004 16.1041 37.2004Z" fill="#FFC20E"/>
<path d="M34.8974 2.50391H33.6455V3.75576H34.8974V2.50391Z" fill="#FFC20E"/>
<path d="M34.8974 0H33.6455V1.25185H34.8974V0Z" fill="#FFC20E"/>
<path d="M31.2968 3.75537H30.1223V4.97631H31.2968V3.75537Z" fill="white"/>
<path d="M28.9779 6.1665H27.7879V7.34108H28.9779V6.1665Z" fill="black"/>
<path d="M32.5945 4.97656H31.2808V6.15114H32.5945V4.97656Z" fill="black"/>
<path d="M27.7885 5.03857H26.6139V6.16678H27.7885V5.03857Z" fill="black"/>
<path d="M31.2968 6.1665H30.1223V7.34108H31.2968V6.1665Z" fill="black"/>
<path d="M33.646 1.26758H32.4096V2.51944H33.646V1.26758Z" fill="black"/>
<path d="M32.4096 2.50391H30.1223V3.75576H32.4096V2.50391Z" fill="black"/>
<path d="M30.1216 3.75537H28.978V6.16634H30.1216V3.75537Z" fill="black"/>
<path d="M28.9785 7.34131V8.51589H27.7885V7.34131H25.8257V8.19133H24.7748V9.24227H25.9494V10.4168H24.7748V9.24227H23.5229V11.0814H22.3483V12.256H21.5601V13.4306H20.6947C19.721 14.8679 17.31 19.3498 16.5682 21.1735C13.9254 17.4952 11.8699 16.0425 10.2625 15.517C9.39706 15.2543 8.34612 16.197 9.78343 17.6961C13.1063 21.359 14.1572 24.3727 15.1618 26.7991C15.7027 28.0664 18.0982 28.2674 18.5773 26.9691C19.5973 24.2336 21.081 21.1426 22.8429 18.6234V17.3098H23.7857V16.1352H24.7748V14.7597H25.9494V13.446H24.7593V12.2405H25.9494V13.446H27.1085V12.256H28.0358V10.8187H29.0867V9.82956H30.0913V7.34131H28.9785Z" fill="black"/>
<path d="M40.4272 32.8601C40.4272 33.2893 40.2715 33.624 39.9602 33.8642C39.6488 34.1044 39.2263 34.2244 38.6926 34.2244C38.1144 34.2244 37.6696 34.1499 37.3583 34.0009V33.4539C37.5584 33.5384 37.7764 33.6051 38.0121 33.654C38.2478 33.7029 38.4813 33.7274 38.7126 33.7274C39.0906 33.7274 39.3753 33.6562 39.5665 33.5139C39.7578 33.3694 39.8534 33.1692 39.8534 32.9135C39.8534 32.7445 39.819 32.6066 39.75 32.4999C39.6833 32.3909 39.5699 32.2908 39.4098 32.1996C39.2519 32.1085 39.0106 32.005 38.6859 31.8894C38.2322 31.7271 37.9076 31.5347 37.7119 31.3123C37.5184 31.0899 37.4217 30.7997 37.4217 30.4417C37.4217 30.0659 37.5629 29.7668 37.8453 29.5444C38.1277 29.322 38.5013 29.2108 38.9661 29.2108C39.4509 29.2108 39.8968 29.2997 40.3037 29.4777L40.127 29.9713C39.7244 29.8023 39.333 29.7178 38.9528 29.7178C38.6525 29.7178 38.4179 29.7823 38.2489 29.9113C38.0799 30.0403 37.9954 30.2193 37.9954 30.4484C37.9954 30.6174 38.0265 30.7564 38.0888 30.8653C38.1511 30.9721 38.2556 31.071 38.4024 31.1622C38.5514 31.2512 38.7782 31.3501 39.0829 31.4591C39.5943 31.6414 39.9457 31.8371 40.137 32.0462C40.3304 32.2552 40.4272 32.5265 40.4272 32.8601Z" fill="black"/>
<path d="M42.8856 34.2244C42.3452 34.2244 41.9183 34.0599 41.6047 33.7307C41.2934 33.4016 41.1377 32.9446 41.1377 32.3597C41.1377 31.7704 41.2822 31.3023 41.5713 30.9554C41.8627 30.6085 42.2529 30.435 42.7422 30.435C43.2003 30.435 43.5628 30.5862 43.8296 30.8887C44.0965 31.1889 44.2299 31.5859 44.2299 32.0795V32.4298H41.7114C41.7226 32.859 41.8304 33.1848 42.035 33.4072C42.2418 33.6296 42.532 33.7408 42.9056 33.7408C43.2993 33.7408 43.6884 33.6585 44.0732 33.4939V33.9876C43.8775 34.0721 43.6918 34.1321 43.5161 34.1677C43.3426 34.2055 43.1325 34.2244 42.8856 34.2244ZM42.7355 30.8987C42.442 30.8987 42.2074 30.9943 42.0317 31.1856C41.8582 31.3768 41.7559 31.6414 41.7248 31.9795H43.6362C43.6362 31.6303 43.5583 31.3635 43.4027 31.1789C43.247 30.9921 43.0246 30.8987 42.7355 30.8987Z" fill="black"/>
<path d="M46.6384 34.2244C46.1091 34.2244 45.6988 34.0621 45.4075 33.7374C45.1184 33.4105 44.9738 32.9491 44.9738 32.3531C44.9738 31.7415 45.1206 31.269 45.4141 30.9354C45.7099 30.6018 46.1302 30.435 46.675 30.435C46.8507 30.435 47.0264 30.4539 47.2021 30.4917C47.3778 30.5295 47.5157 30.574 47.6157 30.6252L47.4456 31.0955C47.3233 31.0466 47.1899 31.0065 47.0453 30.9754C46.9008 30.9421 46.7729 30.9254 46.6617 30.9254C45.9189 30.9254 45.5476 31.3991 45.5476 32.3464C45.5476 32.7956 45.6376 33.1403 45.8178 33.3805C46.0001 33.6207 46.2692 33.7408 46.625 33.7408C46.9297 33.7408 47.2421 33.6751 47.5624 33.5439V34.0343C47.3177 34.1611 47.0097 34.2244 46.6384 34.2244Z" fill="black"/>
<path d="M48.9534 30.5017V32.8735C48.9534 33.1715 49.0212 33.3938 49.1568 33.5406C49.2925 33.6874 49.5049 33.7608 49.794 33.7608C50.1765 33.7608 50.4556 33.6562 50.6313 33.4472C50.8092 33.2382 50.8981 32.8968 50.8981 32.4231V30.5017H51.4518V34.1577H50.9949L50.9148 33.6674H50.8848C50.7714 33.8475 50.6135 33.9854 50.4111 34.081C50.2109 34.1766 49.9819 34.2244 49.7239 34.2244C49.2792 34.2244 48.9456 34.1188 48.7232 33.9075C48.503 33.6963 48.393 33.3583 48.393 32.8935V30.5017H48.9534Z" fill="black"/>
<path d="M54.2972 30.435C54.4596 30.435 54.6053 30.4484 54.7342 30.475L54.6575 30.9888C54.5063 30.9554 54.3729 30.9387 54.2572 30.9387C53.9615 30.9387 53.7079 31.0588 53.4967 31.299C53.2876 31.5392 53.1831 31.8383 53.1831 32.1963V34.1577H52.6294V30.5017H53.0864L53.1497 31.1789H53.1764C53.3121 30.9409 53.4755 30.7575 53.6668 30.6285C53.858 30.4995 54.0682 30.435 54.2972 30.435Z" fill="black"/>
<path d="M55.9718 34.1577H55.4181V30.5017H55.9718V34.1577ZM55.3714 29.511C55.3714 29.3843 55.4025 29.292 55.4648 29.2341C55.527 29.1741 55.6049 29.1441 55.6983 29.1441C55.7872 29.1441 55.8639 29.1741 55.9284 29.2341C55.9929 29.2942 56.0252 29.3865 56.0252 29.511C56.0252 29.6355 55.9929 29.7289 55.9284 29.7912C55.8639 29.8513 55.7872 29.8813 55.6983 29.8813C55.6049 29.8813 55.527 29.8513 55.4648 29.7912C55.4025 29.7289 55.3714 29.6355 55.3714 29.511Z" fill="black"/>
<path d="M58.3268 33.7674C58.4247 33.7674 58.5192 33.7608 58.6104 33.7474C58.7016 33.7319 58.7738 33.7163 58.8272 33.7007V34.1244C58.7672 34.1533 58.6782 34.1766 58.5603 34.1944C58.4447 34.2144 58.3402 34.2244 58.2468 34.2244C57.5396 34.2244 57.186 33.8519 57.186 33.107V30.932H56.6623V30.6652L57.186 30.435L57.4195 29.6545H57.7397V30.5017H58.8005V30.932H57.7397V33.0836C57.7397 33.3038 57.792 33.4728 57.8965 33.5906C58.0011 33.7085 58.1445 33.7674 58.3268 33.7674Z" fill="black"/>
<path d="M58.9807 30.5017H59.5744L60.375 32.5866C60.5507 33.0625 60.6596 33.4061 60.7019 33.6173H60.7286C60.7575 33.5039 60.8175 33.3104 60.9087 33.0369C61.0021 32.7612 61.3046 31.9161 61.816 30.5017H62.4098L60.8387 34.6648C60.683 35.0762 60.5006 35.3675 60.2916 35.5387C60.0848 35.7122 59.8302 35.7989 59.5277 35.7989C59.3587 35.7989 59.1919 35.78 59.0274 35.7422V35.2986C59.1497 35.3252 59.2864 35.3386 59.4377 35.3386C59.8179 35.3386 60.0892 35.1251 60.2516 34.6981L60.4551 34.1777L58.9807 30.5017Z" fill="black"/>
<path d="M66.9498 29.7178C66.4138 29.7178 65.9902 29.8968 65.6789 30.2549C65.3697 30.6107 65.2152 31.0988 65.2152 31.7193C65.2152 32.3575 65.3642 32.8512 65.6622 33.2004C65.9624 33.5473 66.3894 33.7207 66.9431 33.7207C67.2833 33.7207 67.6714 33.6596 68.1073 33.5373V34.0343C67.7693 34.1611 67.3523 34.2244 66.8564 34.2244C66.1381 34.2244 65.5832 34.0065 65.1918 33.5706C64.8027 33.1348 64.6081 32.5154 64.6081 31.7126C64.6081 31.21 64.7015 30.7697 64.8883 30.3917C65.0773 30.0136 65.3486 29.7223 65.7022 29.5177C66.058 29.3131 66.4761 29.2108 66.9564 29.2108C67.4679 29.2108 67.9149 29.3042 68.2974 29.491L68.0572 29.978C67.6881 29.8046 67.3189 29.7178 66.9498 29.7178Z" fill="black"/>
<path d="M71.5898 34.1577V31.7927C71.5898 31.4947 71.522 31.2723 71.3863 31.1255C71.2507 30.9787 71.0383 30.9054 70.7492 30.9054C70.3645 30.9054 70.0832 31.0099 69.9053 31.2189C69.7296 31.428 69.6417 31.7704 69.6417 32.2463V34.1577H69.088V28.9673H69.6417V30.5384C69.6417 30.7275 69.6328 30.8842 69.615 31.0088H69.6484C69.7574 30.8331 69.9119 30.6952 70.1121 30.5951C70.3144 30.4928 70.5446 30.4417 70.8026 30.4417C71.2496 30.4417 71.5843 30.5484 71.8066 30.7619C72.0312 30.9732 72.1435 31.3101 72.1435 31.7727V34.1577H71.5898Z" fill="black"/>
<path d="M74.8288 34.2244C74.2884 34.2244 73.8615 34.0599 73.5479 33.7307C73.2366 33.4016 73.0809 32.9446 73.0809 32.3597C73.0809 31.7704 73.2254 31.3023 73.5145 30.9554C73.8059 30.6085 74.1962 30.435 74.6854 30.435C75.1435 30.435 75.506 30.5862 75.7729 30.8887C76.0397 31.1889 76.1731 31.5859 76.1731 32.0795V32.4298H73.6546C73.6658 32.859 73.7736 33.1848 73.9782 33.4072C74.185 33.6296 74.4752 33.7408 74.8488 33.7408C75.2425 33.7408 75.6316 33.6585 76.0164 33.4939V33.9876C75.8207 34.0721 75.635 34.1321 75.4593 34.1677C75.2858 34.2055 75.0757 34.2244 74.8288 34.2244ZM74.6787 30.8987C74.3852 30.8987 74.1506 30.9943 73.9749 31.1856C73.8014 31.3768 73.6991 31.6414 73.668 31.9795H75.5794C75.5794 31.6303 75.5015 31.3635 75.3459 31.1789C75.1902 30.9921 74.9678 30.8987 74.6787 30.8987Z" fill="black"/>
<path d="M78.5816 34.2244C78.0523 34.2244 77.642 34.0621 77.3507 33.7374C77.0616 33.4105 76.917 32.9491 76.917 32.3531C76.917 31.7415 77.0638 31.269 77.3573 30.9354C77.6531 30.6018 78.0734 30.435 78.6183 30.435C78.7939 30.435 78.9696 30.4539 79.1453 30.4917C79.321 30.5295 79.4589 30.574 79.5589 30.6252L79.3888 31.0955C79.2665 31.0466 79.1331 31.0065 78.9885 30.9754C78.844 30.9421 78.7161 30.9254 78.6049 30.9254C77.8621 30.9254 77.4908 31.3991 77.4908 32.3464C77.4908 32.7956 77.5808 33.1403 77.761 33.3805C77.9433 33.6207 78.2124 33.7408 78.5682 33.7408C78.8729 33.7408 79.1853 33.6751 79.5056 33.5439V34.0343C79.2609 34.1611 78.9529 34.2244 78.5816 34.2244Z" fill="black"/>
<path d="M80.9233 32.2864C81.0189 32.1507 81.1645 31.9728 81.3602 31.7526L82.5411 30.5017H83.1982L81.7172 32.0595L83.3017 34.1577H82.6312L81.3402 32.4298L80.9233 32.7901V34.1577H80.3762V28.9673H80.9233V31.7193C80.9233 31.8416 80.9144 32.0306 80.8966 32.2864H80.9233Z" fill="black"/>
<path d="M87.1211 32.3264C87.1211 32.9224 86.971 33.3883 86.6708 33.7241C86.3706 34.0576 85.9558 34.2244 85.4265 34.2244C85.0996 34.2244 84.8094 34.1477 84.5559 33.9943C84.3024 33.8408 84.1067 33.6207 83.9688 33.3338C83.8309 33.0469 83.762 32.7111 83.762 32.3264C83.762 31.7304 83.911 31.2667 84.209 30.9354C84.507 30.6018 84.9206 30.435 85.4499 30.435C85.9614 30.435 86.3672 30.6051 86.6674 30.9454C86.9699 31.2856 87.1211 31.746 87.1211 32.3264ZM84.3357 32.3264C84.3357 32.7934 84.4291 33.1492 84.6159 33.3938C84.8027 33.6385 85.0774 33.7608 85.4399 33.7608C85.8024 33.7608 86.077 33.6396 86.2638 33.3972C86.4528 33.1525 86.5473 32.7956 86.5473 32.3264C86.5473 31.8616 86.4528 31.5091 86.2638 31.269C86.077 31.0266 85.8001 30.9054 85.4332 30.9054C85.0707 30.9054 84.7972 31.0243 84.6126 31.2623C84.428 31.5002 84.3357 31.8549 84.3357 32.3264Z" fill="black"/>
<path d="M88.6155 30.5017V32.8735C88.6155 33.1715 88.6833 33.3938 88.819 33.5406C88.9547 33.6874 89.167 33.7608 89.4561 33.7608C89.8386 33.7608 90.1177 33.6562 90.2934 33.4472C90.4713 33.2382 90.5603 32.8968 90.5603 32.4231V30.5017H91.114V34.1577H90.657L90.5769 33.6674H90.5469C90.4335 33.8475 90.2756 33.9854 90.0732 34.081C89.8731 34.1766 89.644 34.2244 89.3861 34.2244C88.9413 34.2244 88.6077 34.1188 88.3853 33.9075C88.1652 33.6963 88.0551 33.3583 88.0551 32.8935V30.5017H88.6155Z" fill="black"/>
<path d="M93.4724 33.7674C93.5702 33.7674 93.6647 33.7608 93.7559 33.7474C93.8471 33.7319 93.9194 33.7163 93.9727 33.7007V34.1244C93.9127 34.1533 93.8237 34.1766 93.7059 34.1944C93.5902 34.2144 93.4857 34.2244 93.3923 34.2244C92.6851 34.2244 92.3316 33.8519 92.3316 33.107V30.932H91.8078V30.6652L92.3316 30.435L92.5651 29.6545H92.8853V30.5017H93.9461V30.932H92.8853V33.0836C92.8853 33.3038 92.9375 33.4728 93.0421 33.5906C93.1466 33.7085 93.29 33.7674 93.4724 33.7674Z" fill="black"/>
</svg>
