<svg width="36" height="25" viewBox="0 0 36 25" fill="none" xmlns="http://www.w3.org/2000/svg">
<rect x="0.389108" y="0.389108" width="35.0197" height="24.1247" rx="4.28018" fill="white"/>
<rect x="0.389108" y="0.389108" width="35.0197" height="24.1247" rx="4.28018" stroke="#F2F4F7" stroke-width="0.778215"/>
<path fill-rule="evenodd" clip-rule="evenodd" d="M9.88035 8.65736C9.57936 9.0225 9.09779 9.31049 8.61621 9.26935C8.55601 8.77564 8.79178 8.25108 9.06769 7.92709C9.36867 7.55167 9.89539 7.28424 10.3218 7.26367C10.372 7.77795 10.1763 8.28194 9.88035 8.65736ZM10.3168 9.36692C9.89257 9.34189 9.50545 9.49772 9.19277 9.6236C8.99155 9.7046 8.82115 9.7732 8.69151 9.7732C8.54604 9.7732 8.3686 9.70093 8.16939 9.6198C7.90835 9.51349 7.60991 9.39194 7.29695 9.39777C6.57961 9.40806 5.91242 9.82462 5.54623 10.488C4.79377 11.8149 5.35059 13.7794 6.07797 14.8594C6.43413 15.3942 6.86052 15.9805 7.42236 15.9599C7.66954 15.9504 7.84734 15.873 8.03135 15.793C8.24319 15.7008 8.46327 15.6051 8.80689 15.6051C9.1386 15.6051 9.34905 15.6983 9.55106 15.7878C9.74315 15.8729 9.92761 15.9547 10.2015 15.9496C10.7834 15.9394 11.1496 15.4148 11.5057 14.88C11.8901 14.3059 12.059 13.7457 12.0846 13.6607L12.0876 13.6508C12.087 13.6502 12.0823 13.648 12.074 13.6441L12.0739 13.6441L12.0739 13.644L12.0739 13.644C11.9454 13.5837 10.9633 13.1228 10.9539 11.8869C10.9445 10.8495 11.7329 10.3238 11.857 10.2411C11.8645 10.2361 11.8696 10.2327 11.8719 10.2309C11.3703 9.46977 10.5877 9.38749 10.3168 9.36692ZM14.3449 15.8934V7.87583H17.2795C18.7945 7.87583 19.853 8.94553 19.853 10.5089C19.853 12.0723 18.7744 13.1523 17.2394 13.1523H15.5589V15.8934H14.3449ZM15.559 8.9246H16.9586C18.012 8.9246 18.614 9.50059 18.614 10.5137C18.614 11.5268 18.012 12.108 16.9536 12.108H15.559V8.9246ZM23.8613 14.9315C23.5403 15.5589 22.833 15.9549 22.0705 15.9549C20.9418 15.9549 20.1542 15.2658 20.1542 14.2269C20.1542 13.1984 20.9167 12.607 22.3263 12.5195L23.8413 12.427V11.9847C23.8413 11.3316 23.4249 10.9767 22.6825 10.9767C22.0705 10.9767 21.624 11.3007 21.5337 11.7944H20.4401C20.4752 10.7556 21.4284 9.99958 22.7176 9.99958C24.1071 9.99958 25.0101 10.7453 25.0101 11.9024V15.8932H23.8864V14.9315H23.8613ZM22.3963 15.0035C21.7492 15.0035 21.3379 14.6846 21.3379 14.196C21.3379 13.692 21.7341 13.3989 22.4916 13.3526L23.841 13.2652V13.7178C23.841 14.4686 23.219 15.0035 22.3963 15.0035ZM28.7373 16.2069C28.2507 17.6109 27.6939 18.0737 26.51 18.0737C26.4197 18.0737 26.1187 18.0634 26.0485 18.0429V17.0812C26.1237 17.0914 26.3093 17.1017 26.4046 17.1017C26.9414 17.1017 27.2424 16.8703 27.428 16.2686L27.5384 15.9138L25.4816 10.0767H26.7508L28.1805 14.8132H28.2055L29.6352 10.0767H30.8692L28.7373 16.2069Z" fill="black"/>
</svg>
