<svg width="39" height="25" viewBox="0 0 39 25" fill="none" xmlns="http://www.w3.org/2000/svg">
<rect x="0.389108" y="0.389108" width="37.3054" height="24.2218" rx="4.28018" fill="white"/>
<rect x="0.389108" y="0.389108" width="37.3054" height="24.2218" rx="4.28018" stroke="#F2F4F7" stroke-width="0.778215"/>
<path fill-rule="evenodd" clip-rule="evenodd" d="M11.8669 16.5188H9.59318L7.88819 10.2002C7.80726 9.90957 7.63543 9.65261 7.38268 9.5315C6.7519 9.22715 6.05682 8.98494 5.29855 8.86278V8.61951H8.96129C9.4668 8.61951 9.84593 8.98494 9.90912 9.40934L10.7938 13.9672L13.0663 8.61951H15.2768L11.8669 16.5188ZM16.5407 16.5188H14.3934L16.1616 8.61951H18.3089L16.5407 16.5188ZM21.087 10.808C21.1501 10.3826 21.5293 10.1393 21.9716 10.1393C22.6667 10.0782 23.4238 10.2004 24.0557 10.5037L24.4349 8.80293C23.803 8.55966 23.1079 8.4375 22.4771 8.4375C20.393 8.4375 18.8765 9.53167 18.8765 11.0502C18.8765 12.2055 19.9507 12.8121 20.7089 13.1775C21.5293 13.5419 21.8452 13.7852 21.782 14.1495C21.782 14.6961 21.1501 14.9394 20.5194 14.9394C19.7611 14.9394 19.0028 14.7572 18.3089 14.4528L17.9297 16.1546C18.688 16.4579 19.5083 16.5801 20.2666 16.5801C22.6035 16.6401 24.0557 15.547 24.0557 13.9063C24.0557 11.8401 21.087 11.719 21.087 10.808ZM31.5707 16.5188L29.8657 8.61951H28.0343C27.6552 8.61951 27.276 8.86278 27.1497 9.22715L23.9924 16.5188H26.2029L26.6442 15.3646H29.3602L29.6129 16.5188H31.5707ZM28.3502 10.7471L28.981 13.7242H27.2128L28.3502 10.7471Z" fill="#172B85"/>
</svg>
