<svg width="39" height="25" viewBox="0 0 39 25" fill="none" xmlns="http://www.w3.org/2000/svg">
<rect x="0.815392" y="0.389108" width="37.3054" height="24.2218" rx="2.72375" fill="white"/>
<rect x="0.815392" y="0.389108" width="37.3054" height="24.2218" rx="2.72375" stroke="#F2F4F7" stroke-width="0.778215"/>
<path fill-rule="evenodd" clip-rule="evenodd" d="M20.592 8.48099L18.6855 8.87845V7.37692L20.592 6.98682V8.48099ZM24.5568 9.31272C23.8124 9.31272 23.3339 9.6513 23.0681 9.88684L22.9693 9.43049H21.2983V18.0128L23.1972 17.6227L23.2048 15.5397C23.4782 15.731 23.8808 16.0034 24.5492 16.0034C25.9089 16.0034 27.147 14.9435 27.147 12.6102C27.1394 10.4757 25.8861 9.31272 24.5568 9.31272ZM24.101 14.3842C23.6529 14.3842 23.3871 14.2297 23.2048 14.0383L23.1972 11.3076C23.3946 11.0941 23.6681 10.9469 24.101 10.9469C24.7923 10.9469 25.2708 11.6977 25.2708 12.6619C25.2708 13.6482 24.7999 14.3842 24.101 14.3842ZM33.1324 12.6838C33.1324 10.7995 32.1906 9.31272 30.3904 9.31272C28.5826 9.31272 27.4888 10.7995 27.4888 12.6691C27.4888 14.8846 28.7801 16.0034 30.6335 16.0034C31.5373 16.0034 32.221 15.8046 32.7375 15.5249V14.0529C32.221 14.3031 31.6285 14.4577 30.8765 14.4577C30.1397 14.4577 29.4865 14.2074 29.403 13.3389H33.1173C33.1173 13.2983 33.12 13.2062 33.1231 13.1C33.1274 12.9557 33.1324 12.7856 33.1324 12.6838ZM29.3801 11.9847C29.3801 11.153 29.9042 10.8071 30.3827 10.8071C30.8461 10.8071 31.3398 11.153 31.3398 11.9847H29.3801ZM18.6853 9.43774H20.5918V15.8781H18.6853V9.43774ZM16.5206 9.43782L16.6421 9.9825C17.0902 9.18757 17.9789 9.3495 18.222 9.43782V11.1307C17.9865 11.0498 17.227 10.9467 16.7788 11.5135V15.8782H14.8799V9.43782H16.5206ZM12.8443 7.84065L10.9909 8.22339L10.9833 14.1191C10.9833 15.2085 11.8264 16.0108 12.9506 16.0108C13.5734 16.0108 14.0292 15.9003 14.2799 15.7679V14.2737C14.0368 14.3694 12.8367 14.708 12.8367 13.6186V11.0056H14.2799V9.43787H12.8367L12.8443 7.84065ZM8.35527 10.9099C7.9527 10.9099 7.70964 11.0203 7.70964 11.3074C7.70964 11.6208 8.12795 11.7587 8.64692 11.9297C9.49296 12.2086 10.6065 12.5756 10.6112 13.9351C10.6112 15.2526 9.52502 16.0107 7.9451 16.0107C7.29187 16.0107 6.57787 15.8856 5.87147 15.5912V13.8394C6.50951 14.178 7.31466 14.4282 7.9451 14.4282C8.37047 14.4282 8.67429 14.3178 8.67429 13.9793C8.67429 13.6321 8.22083 13.4734 7.67338 13.2818C6.83965 12.9901 5.78792 12.622 5.78792 11.3957C5.78792 10.0929 6.81334 9.31272 8.35527 9.31272C8.98572 9.31272 9.60857 9.40841 10.239 9.6513V11.381C9.66174 11.0792 8.93255 10.9099 8.35527 10.9099Z" fill="#6461FC"/>
</svg>
