<svg width="36" height="25" viewBox="0 0 36 25" fill="none" xmlns="http://www.w3.org/2000/svg">
<rect x="0.389108" y="0.389108" width="35.0197" height="24.1247" rx="2.72375" fill="white"/>
<rect x="0.389108" y="0.389108" width="35.0197" height="24.1247" rx="2.72375" stroke="#F2F4F7" stroke-width="0.778215"/>
<path fill-rule="evenodd" clip-rule="evenodd" d="M15.1641 19.1424L15.3932 17.6387L14.883 17.6264H12.4467L14.1398 6.53052C14.1451 6.49692 14.1622 6.46573 14.1871 6.44354C14.2121 6.42135 14.244 6.40918 14.2774 6.40918H18.3853C19.7491 6.40918 20.6903 6.70245 21.1816 7.28138C21.412 7.55297 21.5587 7.83685 21.6297 8.14914C21.7042 8.4769 21.7054 8.86843 21.6328 9.34606L21.6275 9.3808V9.68687L21.8579 9.82178C22.0518 9.92816 22.206 10.0499 22.3243 10.1892C22.5213 10.4215 22.6487 10.7167 22.7026 11.0665C22.7583 11.4263 22.7399 11.8546 22.6487 12.3395C22.5436 12.8971 22.3737 13.3829 22.1442 13.7802C21.9332 14.1464 21.6643 14.4502 21.345 14.6855C21.0401 14.9092 20.678 15.0789 20.2685 15.1876C19.8717 15.2944 19.4193 15.3482 18.9231 15.3482H18.6034C18.3748 15.3482 18.1528 15.4333 17.9785 15.5859C17.8037 15.7416 17.6881 15.9543 17.6527 16.187L17.6285 16.3224L17.2238 18.9727L17.2055 19.07C17.2006 19.1008 17.1923 19.1161 17.18 19.1265C17.1691 19.136 17.1534 19.1424 17.1381 19.1424H15.1641Z" fill="#28356A"/>
<path fill-rule="evenodd" clip-rule="evenodd" d="M22.0765 9.41602C22.0643 9.49704 22.0502 9.57983 22.0345 9.66491C21.4928 12.5398 19.6393 13.5329 17.2723 13.5329H16.067C15.7775 13.5329 15.5335 13.7501 15.4885 14.0453L14.6966 19.2368C14.6673 19.4307 14.8118 19.6052 15.001 19.6052H17.1387C17.3917 19.6052 17.6068 19.4152 17.6466 19.1572L17.6676 19.045L18.0701 16.405L18.096 16.2602C18.1354 16.0013 18.3509 15.8111 18.604 15.8111H18.9237C20.9947 15.8111 22.6161 14.9421 23.09 12.4271C23.2878 11.3765 23.1854 10.4992 22.6616 9.88223C22.5031 9.69623 22.3065 9.54179 22.0765 9.41602Z" fill="#298FC2"/>
<path fill-rule="evenodd" clip-rule="evenodd" d="M21.5095 9.1829C21.4267 9.15792 21.3413 9.13535 21.2537 9.11494C21.1656 9.09503 21.0755 9.07741 20.9826 9.06194C20.6576 9.00767 20.3015 8.98193 19.9201 8.98193H16.7004C16.621 8.98193 16.5457 9.00045 16.4783 9.03392C16.3298 9.10771 16.2195 9.25301 16.1928 9.4309L15.5078 13.915L15.4881 14.0457C15.5331 13.7506 15.7771 13.5334 16.0666 13.5334H17.2719C19.639 13.5334 21.4924 12.5397 22.0342 9.66534C22.0503 9.58026 22.064 9.49747 22.0761 9.41645C21.9391 9.34126 21.7906 9.27698 21.6308 9.2222C21.5913 9.20864 21.5506 9.19558 21.5095 9.1829Z" fill="#22284F"/>
<path fill-rule="evenodd" clip-rule="evenodd" d="M16.1926 9.4308C16.2193 9.25291 16.3296 9.1076 16.4782 9.03432C16.546 9.00072 16.6208 8.98221 16.7002 8.98221H19.92C20.3014 8.98221 20.6575 9.00807 20.9824 9.06234C21.0753 9.07768 21.1655 9.09543 21.2535 9.11534C21.3411 9.13563 21.4265 9.15832 21.5093 9.18317C21.5504 9.19585 21.5911 9.20904 21.631 9.2221C21.7908 9.27687 21.9394 9.34166 22.0764 9.41634C22.2376 8.35395 22.0751 7.63061 21.5194 6.9756C20.9066 6.25441 19.8009 5.9458 18.3858 5.9458H14.2778C13.9888 5.9458 13.7422 6.16299 13.6976 6.45867L11.9865 17.6687C11.9528 17.8905 12.1183 18.0905 12.3347 18.0905H14.8708L16.1926 9.4308Z" fill="#28356A"/>
</svg>
