<svg width="36" height="25" viewBox="0 0 36 25" fill="none" xmlns="http://www.w3.org/2000/svg">
<rect x="0.389108" y="0.389108" width="35.0197" height="24.1247" rx="4.28018" fill="white"/>
<rect x="0.389108" y="0.389108" width="35.0197" height="24.1247" rx="4.28018" stroke="#F2F4F7" stroke-width="0.778215"/>
<path fill-rule="evenodd" clip-rule="evenodd" d="M22.3889 19.1233C26.2746 19.1233 29.4247 16.0108 29.4247 12.1713C29.4247 8.33178 26.2746 5.21924 22.3889 5.21924C20.6474 5.21924 19.0537 5.8444 17.8251 6.88C16.5965 5.84447 15.0029 5.21934 13.2615 5.21934C9.37573 5.21934 6.22571 8.33188 6.22571 12.1714C6.22571 16.0109 9.37573 19.1235 13.2615 19.1235C15.003 19.1235 16.5967 18.4983 17.8252 17.4627C19.0538 18.4982 20.6475 19.1233 22.3889 19.1233Z" fill="#ED0006"/>
<path fill-rule="evenodd" clip-rule="evenodd" d="M17.8251 17.4626C19.3379 16.1875 20.2972 14.2901 20.2972 12.1713C20.2972 10.0525 19.3379 8.15513 17.8251 6.87999C19.0537 5.8444 20.6474 5.21924 22.3889 5.21924C26.2746 5.21924 29.4247 8.33178 29.4247 12.1713C29.4247 16.0108 26.2746 19.1233 22.3889 19.1233C20.6474 19.1233 19.0537 18.4982 17.8251 17.4626Z" fill="#F9A000"/>
<path fill-rule="evenodd" clip-rule="evenodd" d="M17.8251 17.4625C19.3379 16.1874 20.2971 14.29 20.2971 12.1712C20.2971 10.0524 19.3379 8.15502 17.8251 6.87988C16.3123 8.15502 15.3531 10.0524 15.3531 12.1712C15.3531 14.29 16.3123 16.1874 17.8251 17.4625Z" fill="#FF5E00"/>
</svg>
