<svg width="21" height="21" viewBox="0 0 21 21" fill="none" xmlns="http://www.w3.org/2000/svg">
<rect x="1" y="1" width="18.6772" height="18.5338" rx="9.26689" fill="#F2F4F7"/>
<rect x="1" y="1" width="18.6772" height="18.5338" rx="9.26689" stroke="#FCFCFD" stroke-width="1.55643"/>
<path d="M8.39292 9.94923V8.3928C8.39292 7.87681 8.59789 7.38196 8.96275 7.0171C9.32761 6.65224 9.82247 6.44727 10.3385 6.44727C10.8544 6.44727 11.3493 6.65224 11.7142 7.0171C12.079 7.38196 12.284 7.87681 12.284 8.3928V9.94923M7.6147 9.94923H13.0622C13.492 9.94923 13.8404 10.2977 13.8404 10.7274V13.4512C13.8404 13.881 13.492 14.2294 13.0622 14.2294H7.6147C7.18491 14.2294 6.83649 13.881 6.83649 13.4512V10.7274C6.83649 10.2977 7.18491 9.94923 7.6147 9.94923Z" stroke="#020246" stroke-width="0.778215" stroke-linecap="round" stroke-linejoin="round"/>
</svg>
