<svg width="560" height="82" viewBox="0 0 560 82" fill="none" xmlns="http://www.w3.org/2000/svg">
<g clip-path="url(#clip0_360_3597)">
<path d="M0 41C0 18.3563 18.3563 0 41 0V0C63.6437 0 82 18.3563 82 41V41C82 63.6437 63.6437 82 41 82V82C18.3563 82 0 63.6437 0 41V41Z" fill="white"/>
<path d="M40.949 51.2784C39.4642 51.2784 38.1417 51.0232 36.9817 50.5128C35.8283 49.9957 34.9168 49.2865 34.2473 48.3849C33.5845 47.4768 33.2431 46.4295 33.2232 45.2429H37.5584C37.5849 45.7401 37.7473 46.1776 38.0456 46.5554C38.3506 46.9266 38.7549 47.215 39.2587 47.4205C39.7625 47.6259 40.3292 47.7287 40.959 47.7287C41.6152 47.7287 42.1953 47.6127 42.699 47.3807C43.2028 47.1487 43.5972 46.8272 43.8823 46.4162C44.1673 46.0052 44.3098 45.5312 44.3098 44.9943C44.3098 44.4508 44.1574 43.9702 43.8525 43.5526C43.5542 43.1283 43.1233 42.7969 42.5598 42.5582C42.003 42.3196 41.3401 42.2003 40.5712 42.2003H38.6721V39.0384H40.5712C41.2208 39.0384 41.7942 38.9257 42.2914 38.7003C42.7952 38.4749 43.1863 38.1634 43.4647 37.7656C43.7431 37.3613 43.8823 36.8906 43.8823 36.3537C43.8823 35.8433 43.7596 35.3958 43.5144 35.0114C43.2757 34.6203 42.9377 34.3153 42.5002 34.0966C42.0693 33.8778 41.5655 33.7685 40.9888 33.7685C40.4055 33.7685 39.8719 33.8745 39.388 34.0866C38.9041 34.2921 38.5163 34.5871 38.2246 34.9716C37.9329 35.3561 37.7772 35.8068 37.7573 36.3239H33.6309C33.6507 35.1506 33.9855 34.1165 34.6351 33.2216C35.2847 32.3267 36.1597 31.6274 37.2601 31.1236C38.3671 30.6132 39.6167 30.358 41.0087 30.358C42.414 30.358 43.6436 30.6132 44.6976 31.1236C45.7516 31.634 46.5703 32.3234 47.1536 33.1918C47.7435 34.0535 48.0352 35.0213 48.0286 36.0952C48.0352 37.2353 47.6806 38.1866 46.9647 38.9489C46.2554 39.7112 45.3307 40.1951 44.1905 40.4006V40.5597C45.6886 40.7519 46.8288 41.2723 47.611 42.1207C48.3998 42.9626 48.7909 44.0166 48.7843 45.2827C48.7909 46.4427 48.4561 47.4735 47.78 48.375C47.1105 49.2765 46.1858 49.9858 45.0059 50.5028C43.8259 51.0199 42.4737 51.2784 40.949 51.2784Z" fill="#00040F"/>
<rect width="478" height="2" transform="translate(82 40)" fill="white"/>
</g>
<defs>
<clipPath id="clip0_360_3597">
<rect width="560" height="82" fill="white"/>
</clipPath>
</defs>
</svg>
