<svg width="560" height="82" viewBox="0 0 560 82" fill="none" xmlns="http://www.w3.org/2000/svg">
<g clip-path="url(#clip0_360_3591)">
<path d="M0 41C0 18.3563 18.3563 0 41 0V0C63.6437 0 82 18.3563 82 41V41C82 63.6437 63.6437 82 41 82V82C18.3563 82 0 63.6437 0 41V41Z" fill="white"/>
<path d="M33.8322 51V47.8977L41.0808 41.1861C41.6973 40.5895 42.2143 40.0526 42.6319 39.5753C43.0562 39.098 43.3777 38.6307 43.5964 38.1733C43.8152 37.7093 43.9245 37.2088 43.9245 36.6719C43.9245 36.0753 43.7886 35.5616 43.5169 35.1307C43.2451 34.6932 42.8739 34.3584 42.4032 34.1264C41.9326 33.8878 41.399 33.7685 40.8024 33.7685C40.1793 33.7685 39.6357 33.8944 39.1717 34.1463C38.7077 34.3982 38.3497 34.7595 38.0978 35.2301C37.8459 35.7008 37.72 36.2609 37.72 36.9105H33.6333C33.6333 35.5781 33.935 34.4214 34.5382 33.4403C35.1414 32.4593 35.9866 31.7003 37.0737 31.1634C38.1608 30.6264 39.4136 30.358 40.8322 30.358C42.2905 30.358 43.56 30.6165 44.6404 31.1335C45.7276 31.6439 46.5727 32.3532 47.176 33.2614C47.7792 34.1695 48.0808 35.2102 48.0808 36.3835C48.0808 37.1525 47.9283 37.9115 47.6234 38.6605C47.3251 39.4096 46.7915 40.2415 46.0225 41.1562C45.2536 42.0644 44.1698 43.1548 42.7711 44.4276L39.7981 47.3409V47.4801H48.3493V51H33.8322Z" fill="#00040F"/>
<rect width="478" height="2" transform="translate(82 40)" fill="white"/>
</g>
<defs>
<clipPath id="clip0_360_3591">
<rect width="560" height="82" fill="white"/>
</clipPath>
</defs>
</svg>
