<svg width="459" height="492" viewBox="0 0 459 492" fill="none" xmlns="http://www.w3.org/2000/svg">
<path d="M312.5 467C312.5 469.761 314.739 472 317.5 472C320.261 472 322.5 469.761 322.5 467H312.5ZM317.5 322.5L313.93 318.999L312.5 320.458V322.5H317.5ZM322.5 467V322.5H312.5V467H322.5ZM321.07 326.001L447.57 197.001L440.43 189.999L313.93 318.999L321.07 326.001Z" fill="#FAA61E"/>
<path d="M141 380L51.5 292" stroke="#FAA61E" stroke-width="10"/>
<path d="M60 238.5L81 218.5V178" stroke="#FAA61E" stroke-width="10"/>
<path d="M136 466.5C136 469.261 138.239 471.5 141 471.5C143.761 471.5 146 469.261 146 466.5H136ZM141 321.5H146V319.452L144.563 317.992L141 321.5ZM146 466.5V321.5H136V466.5H146ZM144.563 317.992L18.5633 189.992L11.4367 197.008L137.437 325.008L144.563 317.992Z" fill="#FAA61E"/>
<path d="M272 245.5L338 181V149M338 42V149M338 149L395.5 93.5" stroke="#FAA61E" stroke-width="10"/>
<path d="M272.5 313L337 248.5" stroke="#FAA61E" stroke-width="10"/>
<path d="M317 379C317.4 378.2 375.833 320 405 291" stroke="#FAA61E" stroke-width="10"/>
<path d="M399 240L376.5 220V176.5" stroke="#FAA61E" stroke-width="10"/>
<path d="M229 159L270.822 203.5L272 485" stroke="#FAA61E" stroke-width="10" stroke-linecap="round"/>
<path d="M262 104.5L297 69" stroke="#FAA61E" stroke-width="10"/>
<path d="M196 107.5L227.5 77.5" stroke="#FAA61E" stroke-width="10"/>
<path d="M196 101L161 68.5" stroke="#FAA61E" stroke-width="10"/>
<path d="M228.5 158.5L196 126V15" stroke="#FAA61E" stroke-width="10"/>
<path d="M120.5 151L61.5 92.5" stroke="#FAA61E" stroke-width="10"/>
<path d="M131.5 192.5L160 165" stroke="#FAA61E" stroke-width="10"/>
<path d="M185 245L120.5 182V43.5" stroke="#FAA61E" stroke-width="10"/>
<path d="M185.5 311L121 248.5" stroke="#FAA61E" stroke-width="10"/>
<path d="M180 486.5C180 489.261 182.239 491.5 185 491.5C187.761 491.5 190 489.261 190 486.5H180ZM185 203L181.431 199.499L180 200.957V203H185ZM262 124.5L265.569 128.001L267 126.543V124.5H262ZM190 486.5V203H180V486.5H190ZM188.569 206.501L265.569 128.001L258.431 120.999L181.431 199.499L188.569 206.501ZM267 124.5V15.5H257V124.5H267Z" fill="#FAA61E"/>
<path d="M228 487V211" stroke="#FAA61E" stroke-width="10" stroke-linecap="round"/>
<circle cx="228.5" cy="76.5" r="15.5" fill="#FAA61E"/>
<circle cx="50.5" cy="291.5" r="15.5" fill="#FAA61E"/>
<circle cx="120.5" cy="248.5" r="15.5" fill="#FAA61E"/>
<circle cx="15.5" cy="194.5" r="15.5" fill="#FAA61E"/>
<circle cx="80.5" cy="177.5" r="15.5" fill="#FAA61E"/>
<circle cx="404.5" cy="291.5" r="15.5" fill="#FAA61E"/>
<circle cx="443.5" cy="192.5" r="15.5" fill="#FAA61E"/>
<circle cx="376.5" cy="177.5" r="15.5" fill="#FAA61E"/>
<circle cx="336.5" cy="248.5" r="15.5" fill="#FAA61E"/>
<circle cx="227.5" cy="211.5" r="15.5" fill="#FAA61E"/>
<circle cx="60.5" cy="92.5" r="15.5" fill="#FAA61E"/>
<circle cx="159.5" cy="165.5" r="15.5" fill="#FAA61E"/>
<path d="M325.5 192.5L298 164" stroke="#FAA61E" stroke-width="10"/>
<circle cx="299.5" cy="165.5" r="15.5" transform="rotate(-90 299.5 165.5)" fill="#FAA61E"/>
<circle cx="396.5" cy="92.5" r="15.5" fill="#FAA61E"/>
<circle cx="120.5" cy="43.5" r="15.5" fill="#FAA61E"/>
<circle cx="337.5" cy="43.5" r="15.5" fill="#FAA61E"/>
<circle cx="296.5" cy="69.5" r="15.5" fill="#FAA61E"/>
<circle cx="261.5" cy="15.5" r="15.5" fill="#FAA61E"/>
<circle cx="159.5" cy="69.5" r="15.5" fill="#FAA61E"/>
<circle cx="227.5" cy="350.5" r="15.5" fill="#FAA61E"/>
<circle cx="195.5" cy="15.5" r="15.5" fill="#FAA61E"/>
</svg>
	