<svg width="20" height="20" viewBox="0 0 20 20" fill="none" xmlns="http://www.w3.org/2000/svg">
<g clip-path="url(#clip0_351_2271)">
<path d="M0 0H20V20H0V0Z" fill="#012169"/>
<path d="M2.34375 0L9.96875 7.54167L17.5625 0H20V2.58333L12.5 10.0417L20 17.4583V20H17.5L10 12.5417L2.53125 20H0V17.5L7.46875 10.0833L0 2.66667V0H2.34375Z" fill="white"/>
<path d="M13.25 11.7083L20 18.3333V20L11.5312 11.7083H13.25ZM7.5 12.5417L7.6875 14L1.6875 20H0L7.5 12.5417ZM20 0V0.125L12.2188 7.95833L12.2812 6.125L18.4375 0H20ZM0 0L7.46875 7.33333H5.59375L0 1.75V0Z" fill="#C8102E"/>
<path d="M7.53125 0V20H12.5312V0H7.53125ZM0 6.66667V13.3333H20V6.66667H0Z" fill="white"/>
<path d="M0 8.04167V12.0417H20V8.04167H0ZM8.53125 0V20H11.5312V0H8.53125Z" fill="#C8102E"/>
</g>
<defs>
<clipPath id="clip0_351_2271">
<rect width="20" height="20" rx="10" fill="white"/>
</clipPath>
</defs>
</svg>
