<svg width="532" height="524" viewBox="0 0 532 524" fill="none" xmlns="http://www.w3.org/2000/svg">
<path d="M363.023 497.414C363.023 500.176 365.262 502.414 368.023 502.414C370.785 502.414 373.023 500.176 373.023 497.414H363.023ZM368.023 343.509L364.604 339.861L363.023 341.343V343.509H368.023ZM373.023 497.414V343.509H363.023V497.414H373.023ZM371.443 347.157L518.007 209.76L511.168 202.465L364.604 339.861L371.443 347.157Z" fill="#FAA61E"/>
<path d="M163.529 404.751L59.8335 311.024" stroke="#FAA61E" stroke-width="10"/>
<path d="M69.6816 254.041L94.0125 232.74V189.604" stroke="#FAA61E" stroke-width="10"/>
<path d="M158.528 496.882C158.528 499.643 160.767 501.882 163.528 501.882C166.29 501.882 168.528 499.643 168.528 496.882H158.528ZM163.528 342.444H168.528V340.272L166.941 338.789L163.528 342.444ZM168.528 496.882V342.444H158.528V496.882H168.528ZM166.941 338.789L20.9561 202.458L14.1308 209.767L160.116 346.098L166.941 338.789Z" fill="#FAA61E"/>
<path d="M315.307 261.497L391.775 192.799V158.716M391.775 44.7515V158.716M391.775 158.716L458.395 99.6035" stroke="#FAA61E" stroke-width="10"/>
<path d="M315.886 333.391L390.616 264.692" stroke="#FAA61E" stroke-width="10"/>
<path d="M367.444 403.686C367.908 402.834 435.609 340.846 469.402 309.959" stroke="#FAA61E" stroke-width="10"/>
<path d="M462.451 255.639L436.382 234.337V188.006" stroke="#FAA61E" stroke-width="10"/>
<path d="M265.486 169.367L313.942 216.763L315.307 516.586" stroke="#FAA61E" stroke-width="10" stroke-linecap="round"/>
<path d="M303.72 111.32L344.272 73.5089" stroke="#FAA61E" stroke-width="10"/>
<path d="M227.252 114.515L263.748 82.5621" stroke="#FAA61E" stroke-width="10"/>
<path d="M227.252 107.592L186.701 72.9763" stroke="#FAA61E" stroke-width="10"/>
<path d="M264.907 168.834L227.252 134.219V15.9941" stroke="#FAA61E" stroke-width="10"/>
<path d="M139.777 160.846L71.4194 98.5385" stroke="#FAA61E" stroke-width="10"/>
<path d="M152.522 205.047L185.542 175.757" stroke="#FAA61E" stroke-width="10"/>
<path d="M214.508 260.964L139.777 193.864V46.3491" stroke="#FAA61E" stroke-width="10"/>
<path d="M215.087 331.26L140.356 264.692" stroke="#FAA61E" stroke-width="10"/>
<path d="M209.508 518.183C209.508 520.945 211.746 523.183 214.508 523.183C217.269 523.183 219.508 520.945 219.508 518.183H209.508ZM214.508 216.231L211.089 212.583L209.508 214.064V216.231H214.508ZM303.721 132.621L307.14 136.27L308.721 134.788V132.621H303.721ZM219.508 518.183V216.231H209.508V518.183H219.508ZM217.927 219.879L307.14 136.27L300.302 128.973L211.089 212.583L217.927 219.879ZM308.721 132.621V16.5266H298.721V132.621H308.721Z" fill="#FAA61E"/>
<path d="M264.328 518.716V224.752" stroke="#FAA61E" stroke-width="10" stroke-linecap="round"/>
<ellipse cx="264.907" cy="81.4971" rx="17.9585" ry="16.5089" fill="#FAA61E"/>
<ellipse cx="58.6743" cy="310.491" rx="17.9585" ry="16.5089" fill="#FAA61E"/>
<ellipse cx="139.777" cy="264.692" rx="17.9585" ry="16.5089" fill="#FAA61E"/>
<ellipse cx="18.123" cy="207.178" rx="17.9585" ry="16.5089" fill="#FAA61E"/>
<ellipse cx="93.4326" cy="189.071" rx="17.9585" ry="16.5089" fill="#FAA61E"/>
<ellipse cx="468.823" cy="310.491" rx="17.9585" ry="16.5089" fill="#FAA61E"/>
<ellipse cx="514.008" cy="205.047" rx="17.9585" ry="16.5089" fill="#FAA61E"/>
<ellipse cx="436.382" cy="189.071" rx="17.9585" ry="16.5089" fill="#FAA61E"/>
<ellipse cx="390.037" cy="264.692" rx="17.9585" ry="16.5089" fill="#FAA61E"/>
<ellipse cx="263.749" cy="225.284" rx="17.9585" ry="16.5089" fill="#FAA61E"/>
<ellipse cx="70.2607" cy="98.5385" rx="17.9585" ry="16.5089" fill="#FAA61E"/>
<ellipse cx="184.963" cy="176.29" rx="17.9585" ry="16.5089" fill="#FAA61E"/>
<path d="M377.292 205.047L345.431 174.692" stroke="#FAA61E" stroke-width="10"/>
<ellipse cx="347.168" cy="176.29" rx="16.5089" ry="17.9585" transform="rotate(-90 347.168 176.29)" fill="#FAA61E"/>
<ellipse cx="459.553" cy="98.5385" rx="17.9585" ry="16.5089" fill="#FAA61E"/>
<ellipse cx="139.777" cy="46.3491" rx="17.9585" ry="16.5089" fill="#FAA61E"/>
<ellipse cx="391.196" cy="46.3491" rx="17.9585" ry="16.5089" fill="#FAA61E"/>
<ellipse cx="343.693" cy="74.0414" rx="17.9585" ry="16.5089" fill="#FAA61E"/>
<ellipse cx="303.142" cy="16.5266" rx="17.9585" ry="16.5089" fill="#FAA61E"/>
<ellipse cx="184.963" cy="74.0414" rx="17.9585" ry="16.5089" fill="#FAA61E"/>
<ellipse cx="263.749" cy="373.331" rx="17.9585" ry="16.5089" fill="#FAA61E"/>
<ellipse cx="226.673" cy="16.5266" rx="17.9585" ry="16.5089" fill="#FAA61E"/>
</svg>
