<svg width="28" height="25" viewBox="0 0 28 25" fill="none" xmlns="http://www.w3.org/2000/svg">
<path d="M0.950195 1.69252C0.950195 1.07081 1.44419 0.570641 2.05823 0.570641H4.15887C5.17457 0.570641 6.07485 1.16898 6.49498 2.06649H25.47C26.6843 2.06649 27.5707 3.23511 27.2521 4.42244L25.3592 11.5417C24.9668 13.0095 23.651 14.0332 22.1506 14.0332H8.83108L9.08039 15.3655C9.18196 15.8937 9.63902 16.277 10.17 16.277H23.4802C24.0942 16.277 24.5882 16.7772 24.5882 17.3989C24.5882 18.0206 24.0942 18.5208 23.4802 18.5208H10.17C8.57254 18.5208 7.20135 17.3708 6.90587 15.7862L4.5236 3.11825C4.49128 2.94062 4.33893 2.81441 4.15887 2.81441H2.05823C1.44419 2.81441 0.950195 2.31423 0.950195 1.69252ZM6.85971 22.2604C6.85971 21.9657 6.91703 21.674 7.02839 21.4017C7.13976 21.1295 7.303 20.8822 7.50878 20.6738C7.71456 20.4655 7.95885 20.3002 8.22772 20.1874C8.49659 20.0747 8.78475 20.0166 9.07577 20.0166C9.36679 20.0166 9.65496 20.0747 9.92382 20.1874C10.1927 20.3002 10.437 20.4655 10.6428 20.6738C10.8485 20.8822 11.0118 21.1295 11.1232 21.4017C11.2345 21.674 11.2918 21.9657 11.2918 22.2604C11.2918 22.555 11.2345 22.8468 11.1232 23.119C11.0118 23.3913 10.8485 23.6386 10.6428 23.847C10.437 24.0553 10.1927 24.2206 9.92382 24.3334C9.65496 24.4461 9.36679 24.5042 9.07577 24.5042C8.78475 24.5042 8.49659 24.4461 8.22772 24.3334C7.95885 24.2206 7.71456 24.0553 7.50878 23.847C7.303 23.6386 7.13976 23.3913 7.02839 23.119C6.91703 22.8468 6.85971 22.555 6.85971 22.2604ZM22.3722 20.0166C22.9599 20.0166 23.5236 20.253 23.9392 20.6738C24.3548 21.0946 24.5882 21.6653 24.5882 22.2604C24.5882 22.8555 24.3548 23.4262 23.9392 23.847C23.5236 24.2678 22.9599 24.5042 22.3722 24.5042C21.7844 24.5042 21.2208 24.2678 20.8052 23.847C20.3896 23.4262 20.1561 22.8555 20.1561 22.2604C20.1561 21.6653 20.3896 21.0946 20.8052 20.6738C21.2208 20.253 21.7844 20.0166 22.3722 20.0166Z" fill="white"/>
</svg>
